<?xml version="1.0" encoding="UTF-8" standalone="no" ?>
<!DOCTYPE svg PUBLIC "-//W3C//DTD SVG 1.1//EN" "http://www.w3.org/Graphics/SVG/1.1/DTD/svg11.dtd">
<svg xmlns="http://www.w3.org/2000/svg" xmlns:xlink="http://www.w3.org/1999/xlink" version="1.1" width="445" height="445" viewBox="0 0 445 445" xml:space="preserve">
<desc>Created with Fabric.js 1.7.22</desc>
<defs>
</defs>
<g id="icon" style="stroke: none; stroke-width: 1; stroke-dasharray: none; stroke-linecap: butt; stroke-linejoin: miter; stroke-miterlimit: 10; fill: none; fill-rule: nonzero; opacity: 1;" transform="translate(-2.4722222222222285 -2.4722222222222285) scale(4.94 4.94)" >
	<path d="M 82.467 54.516 c -2.859 0 -5.184 -2.325 -5.184 -5.184 s 2.325 -5.184 5.184 -5.184 c 2.859 0 5.184 2.326 5.184 5.184 S 85.326 54.516 82.467 54.516 z" style="stroke: none; stroke-width: 1; stroke-dasharray: none; stroke-linecap: butt; stroke-linejoin: miter; stroke-miterlimit: 10; fill: rgb(112,0,0); fill-rule: nonzero; opacity: 1;" transform=" matrix(1 0 0 1 0 0) " stroke-linecap="round" />
	<path d="M 24.112 76 c -2.272 0 -4.12 -1.848 -4.12 -4.12 c 0 -2.271 1.848 -4.119 4.12 -4.119 s 4.12 1.848 4.12 4.119 C 28.232 74.152 26.384 76 24.112 76 z" style="stroke: none; stroke-width: 1; stroke-dasharray: none; stroke-linecap: butt; stroke-linejoin: miter; stroke-miterlimit: 10; fill: rgb(112,0,0); fill-rule: nonzero; opacity: 1;" transform=" matrix(1 0 0 1 0 0) " stroke-linecap="round" />
	<path d="M 86.002 22.878 c -1.748 -1.9 -4.466 -2.621 -6.928 -1.835 c -1.712 0.547 -3.109 1.701 -3.935 3.25 c -0.808 1.516 -1.834 2.652 -3.05 3.375 l -0.874 0.52 c -2.791 1.661 -6.563 1.509 -9.171 -0.365 l -0.005 0.007 c -1.668 -1.185 -3.475 -2.153 -5.388 -2.866 c -1.389 -0.888 -2.216 -2.351 -2.216 -3.931 v -0.333 c 0 -1.205 0.51 -2.411 1.437 -3.396 c 2.072 -2.204 3.062 -5.203 2.717 -8.228 c -0.534 -4.701 -4.336 -8.491 -9.038 -9.013 c -2.926 -0.321 -5.848 0.607 -8.023 2.554 c -2.176 1.948 -3.424 4.739 -3.424 7.658 c 0 2.621 0.99 5.117 2.787 7.029 c 0.926 0.985 1.437 2.191 1.437 3.395 v 0.284 c 0 1.591 -0.809 3.093 -2.117 3.944 c -0.964 0.355 -1.9 0.776 -2.806 1.252 l -0.003 -0.005 c -2.898 1.567 -6.665 1.293 -9.163 -0.665 l -0.8 -0.626 c -1.112 -0.871 -1.985 -2.129 -2.594 -3.738 c -0.621 -1.641 -1.86 -2.964 -3.488 -3.725 c -2.339 -1.095 -5.128 -0.726 -7.104 0.936 c -1.594 1.34 -2.487 3.282 -2.452 5.327 c 0.035 2.046 0.978 3.942 2.587 5.202 c 0.958 0.75 2.101 1.225 3.307 1.372 c 1.717 0.21 3.181 0.781 4.35 1.697 l 0.632 0.495 c 2.494 1.954 3.687 5.627 2.837 8.734 l 0.009 0.002 c -0.225 0.88 -0.41 1.774 -0.534 2.682 l -0.022 0.175 c -0.592 1.48 -1.82 2.552 -3.306 2.879 l -0.325 0.072 c -1.174 0.259 -2.462 0.02 -3.626 -0.673 c -2.597 -1.55 -5.738 -1.871 -8.62 -0.884 c -4.476 1.533 -7.36 6.06 -6.857 10.766 c 0.312 2.925 1.85 5.581 4.219 7.286 c 2.37 1.705 5.364 2.324 8.216 1.696 c 2.56 -0.563 4.785 -2.067 6.266 -4.233 c 0.763 -1.117 1.83 -1.874 3.006 -2.133 l 0.278 -0.061 c 1.538 -0.341 3.171 0.119 4.284 1.199 c 1.126 1.748 2.455 3.311 3.939 4.678 c 2.297 2.126 3.171 5.745 2.121 8.829 l -0.328 0.962 c -0.456 1.338 -1.354 2.577 -2.671 3.683 c -1.345 1.128 -2.185 2.734 -2.366 4.523 c -0.26 2.569 1.007 5.08 3.228 6.397 C 33.51 89.672 34.721 90 35.935 90 c 0.786 0 1.573 -0.137 2.328 -0.416 c 1.919 -0.709 3.397 -2.225 4.057 -4.16 c 0.392 -1.151 0.462 -2.386 0.204 -3.574 c -0.369 -1.69 -0.313 -3.26 0.166 -4.666 l 0.26 -0.76 c 1.076 -3.159 3.853 -5.425 6.909 -5.637 l 0 -0.001 c 2.22 -0.127 4.396 -0.554 6.47 -1.269 c 0.69 -0.238 1.397 -0.528 2.213 -0.911 c 1.495 -0.252 3.016 0.237 4.1 1.318 l 0.201 0.201 c 0.851 0.851 1.342 2.065 1.384 3.417 c 0.081 2.623 1.147 5.088 3 6.941 c 1.93 1.931 4.553 3.01 7.27 3.01 c 0.188 0 0.377 -0.005 0.565 -0.016 c 2.914 -0.161 5.64 -1.57 7.479 -3.867 c 2.957 -3.694 2.965 -9.062 0.019 -12.765 c -1.896 -2.383 -4.717 -3.803 -7.74 -3.896 c -1.353 -0.042 -2.567 -0.533 -3.418 -1.384 l -0.236 -0.236 c -1.057 -1.058 -1.518 -2.597 -1.245 -4.14 c 1.832 -3.914 2.563 -8.2 2.112 -12.404 c -0.021 -0.197 -0.053 -0.391 -0.078 -0.586 l 0.009 -0.001 c -0.449 -3.214 1.219 -6.831 3.881 -8.415 l 0.69 -0.411 c 1.259 -0.749 2.76 -1.128 4.46 -1.128 c 0.024 0 0.048 0 0.071 0 c 1.226 -0.005 2.41 -0.317 3.456 -0.938 c 1.756 -1.045 2.933 -2.805 3.23 -4.829 C 88.05 26.452 87.411 24.412 86.002 22.878 z" style="stroke: none; stroke-width: 1; stroke-dasharray: none; stroke-linecap: butt; stroke-linejoin: miter; stroke-miterlimit: 10; fill: rgb(232,0,0); fill-rule: nonzero; opacity: 1;" transform=" matrix(1 0 0 1 0 0) " stroke-linecap="round" />
	<path d="M 55.993 37.561 c 0 1.52 -1.296 2.756 -2.889 2.756 h -2.066 c -2.962 0 -5.371 2.208 -5.371 4.922 v 3.404 c 0 2.714 2.409 4.922 5.371 4.922 h 2.066 c 1.593 0 2.889 1.236 2.889 2.756 v 1.493 c 0 1.52 -1.296 2.756 -2.889 2.756 h -3.205 c -6.37 0 -11.553 -4.849 -11.553 -10.809 v -5.638 c 0 -5.96 5.182 -10.809 11.553 -10.809 h 3.205 c 1.593 0 2.889 1.236 2.889 2.756 V 37.561 z" style="stroke: none; stroke-width: 1; stroke-dasharray: none; stroke-linecap: butt; stroke-linejoin: miter; stroke-miterlimit: 10; fill: rgb(112,0,0); fill-rule: nonzero; opacity: 1;" transform=" matrix(1 0 0 1 0 0) " stroke-linecap="round" />
</g>
</svg>